<?xml version="1.0" encoding="utf-8"?>
<svg viewBox="0 0 1000 1000" id="vector" xmlns="http://www.w3.org/2000/svg">
  <g id="group" transform="matrix(0.709091, 0, 0, 0.782486, 4.518239, -53.988194)" style="">
    <path id="path" d="M 153.3 985.3 C 82.2 1163.6 23.8 1310.3 23.4 1311.2 C 22.8 1312.9 32.2 1313 211.1 1313 L 399.5 1313 L 423 1254.3 C 438.5 1215.6 446.4 1194.7 446.3 1192.6 C 446.1 1188.5 284.5 661.7 283.4 661.3 C 282.9 661.1 224.4 806.9 153.3 985.3 Z" fill="#1693a7" stroke="#1693a7"/>
    <path id="path_1" d="M 396 376.3 C 335.3 528.7 285 655 284.2 656.8 C 283.5 658.7 283.3 659.9 283.8 659.6 C 284.4 659.3 355.8 693.7 442.5 736.1 C 529.2 778.5 600.3 813 600.5 812.8 C 601.3 812 653 682.8 653 681.6 C 653 680.5 507.8 102.8 506.7 99.8 C 506.6 99.4 456.8 223.8 396 376.3 Z" fill="#1693a7" stroke="#1693a7"/>
    <path id="path_2" d="M 509.6 90.1 C 508.8 92 507.8 94.8 507.5 96.2 C 506.5 100.3 653 681.4 654.6 679.8 C 655.3 679.1 656.5 676.5 657.3 674 C 659.9 666.3 677.1 623.6 678.2 622.2 C 678.8 621.6 678.9 621 678.5 621 C 678.1 621 678.5 619.9 679.4 618.5 C 680.3 617.1 680.8 616 680.6 616 C 680.3 616 681.2 613.8 682.5 611.1 C 683.9 608.4 685 605.7 685 605.1 C 685 604.5 686.3 601.1 688 597.5 C 689.6 593.9 691 590.6 691 590.1 C 691 589.6 693.3 583.5 696.1 576.6 L 701.2 564 L 695.7 549.2 C 692.6 541.1 686.2 525 681.5 513.5 C 676.8 501.9 666.2 475.4 657.9 454.5 C 649.6 433.6 634.4 395.1 624 369 C 613.6 342.9 584.4 269.1 559.1 205.1 C 533.7 141 512.6 88.2 512 87.6 C 511.4 87 510.5 87.8 509.6 90.1 Z" fill="#003567" stroke="#003567"/>
    <path id="path_3" d="M 512.3 86.7 C 512.8 88.3 576 248.1 624 369 C 634.4 395.1 649.6 433.6 657.9 454.5 C 666.2 475.4 676.8 501.9 681.5 513.5 C 692.5 540.5 701 562.9 701 564.8 C 701 565.7 708.1 584.4 716.9 606.4 C 725.6 628.5 741.4 668.4 752 695.2 C 772.9 747.9 771.7 745.8 778 742.5 C 782.7 740.1 858.3 709 859.5 709 C 861 709 899.2 693.1 900.7 691.8 C 901.4 691.2 902 691 902 691.3 C 902 692.1 915.9 686.3 917.7 684.9 C 918.4 684.3 919 684 919 684.3 C 919 685.1 932.9 679.3 934.7 677.9 C 935.4 677.3 936 677 936 677.3 C 936 677.9 947 673.6 950.5 671.7 C 951.6 671.1 953 670.5 953.5 670.4 C 955.1 670.1 970.1 664 972.4 662.7 C 973.6 662.1 975 661.5 975.5 661.4 C 976.9 661.2 1009.1 648 1011.5 646.7 C 1012.6 646.1 1014 645.5 1014.5 645.4 C 1016.1 645.1 1031.1 639 1033.4 637.7 C 1034.6 637.1 1036 636.5 1036.5 636.4 C 1038.1 636.1 1053.1 630 1055.4 628.7 C 1056.6 628.1 1058 627.5 1058.5 627.4 C 1060.1 627.1 1075.2 621 1077.4 619.7 C 1078.6 619.1 1079.7 618.5 1080 618.5 C 1082.1 618.3 1093.2 613.5 1094.1 612.4 C 1094.9 611.4 1094.6 609.6 1092.8 604.8 C 1091.4 601.3 1069.7 547.2 1044.5 484.5 C 946 239.2 926.1 189.7 906.3 140 C 895 111.7 885.2 88 884.6 87.4 C 883.8 86.5 833.6 86.1 697.6 85.6 C 519.2 84.9 511.8 85 512.3 86.7 Z" fill="#245397" stroke="#245397"/>
    <path id="path_4" d="M 1249.5 548.5 C 1180.2 576.8 1117.2 602.5 1109.5 605.6 C 1101.8 608.7 1095.1 611.9 1094.5 612.6 C 1094 613.3 1062.5 626.5 1024.5 642 C 986.6 657.5 934.8 678.8 909.5 689.2 C 884.2 699.7 862.2 708.6 860.5 709 C 858.9 709.4 838.8 717.4 815.9 726.9 C 793.1 736.3 773.4 744 772.2 744 C 771 744 757.7 749 742.7 755.1 C 727.8 761.2 704 770.8 690 776.5 C 621.6 804.2 602.4 812.3 600.8 813.8 C 599.9 814.7 586.2 847.7 570.5 887 C 554.7 926.3 539.5 963.9 536.8 970.5 C 534.2 977 532.2 983 532.4 983.6 C 532.7 984.3 532.1 985.9 531 987.2 C 529.3 989.4 521.7 1008 466.8 1144.5 C 456.5 1170.3 448.1 1192.1 448.2 1192.8 C 448.5 1194.2 835.1 904.8 836 902.5 C 836.5 901.1 1000.8 777.1 1010 771.2 C 1013 769.2 1018.2 765.4 1021.5 762.6 C 1024.8 759.8 1032.4 753.9 1038.3 749.5 C 1045.3 744.3 1048.9 741.1 1048.5 740.2 C 1048.2 739.2 1048.5 739 1049.5 739.4 C 1050.5 739.8 1062 731.8 1083 716 C 1100.6 702.8 1115.5 692 1116.2 692 C 1116.9 692 1119.1 690.6 1121 689 C 1122.9 687.4 1124.8 686 1125.3 686 C 1126 686 1373.1 501.1 1376 498.4 C 1376.8 497.6 1377 497 1376.5 497.1 C 1375.9 497.1 1318.8 520.3 1249.5 548.5 Z" fill="#1693a7" stroke="#1693a7"/>
    <path id="path_5" d="M 1109.8 696.3 C 1084.9 714.4 1025.4 759.3 1021.1 763.3 C 1018.1 766 1013.3 769.5 1010.6 771.1 C 1007.8 772.7 987.7 787.5 966 803.9 C 944.3 820.4 906.1 849.3 881.3 868.1 C 852.3 890 836 902.9 836 904 C 836 905 841 918.2 847 933.5 C 853.1 948.8 858 962.1 858 963.1 C 858 964.2 858.4 965 858.8 965 C 859.2 965 860.2 966.7 861 968.7 C 864.9 979.7 869.4 989.1 870.5 988.8 C 872.2 988.4 1117.9 694.9 1118 693.2 C 1118 691.1 1115.7 692 1109.8 696.3 Z" fill="#003567" stroke="#003567"/>
    <path id="path_6" d="M 1120.8 689.7 C 1119.4 691.3 1118 693.2 1117.7 694 C 1117.1 695.6 872.4 988.1 870.8 989.1 C 870.3 989.4 876.6 1006.8 884.9 1027.6 C 893.1 1048.4 918.4 1112.3 941 1169.5 C 963.6 1226.7 985.8 1282.6 990.2 1293.7 L 998.2 1314 L 1187.1 1314 C 1291 1314 1376 1313.8 1376 1313.5 C 1376 1313.1 1362.7 1279.8 1346.5 1239.5 C 1330.3 1199.1 1303.7 1132.8 1287.4 1092.2 C 1271.1 1051.7 1248.2 994.6 1236.5 965.5 C 1220.4 925.5 1136.4 716.1 1126.2 690.7 C 1125.4 688.7 1124.4 687 1124 687 C 1123.7 687 1122.2 688.2 1120.8 689.7 Z" fill="#245397" stroke="#245397"/>
  </g>
</svg>